<?xml version="1.0" encoding="utf-8"?>
<!-- Generator: Adobe Illustrator 25.0.0, SVG Export Plug-In . SVG Version: 6.00 Build 0)  -->
<svg version="1.1" id="Laag_1" xmlns="http://www.w3.org/2000/svg" xmlns:xlink="http://www.w3.org/1999/xlink" x="0px" y="0px"
	 viewBox="0 0 211.1 271.1" style="enable-background:new 0 0 211.1 271.1;" xml:space="preserve">
<style type="text/css">
	.st0{fill:none;stroke:#BC0000;stroke-width:20;stroke-linecap:round;}
	.st1{fill:none;stroke:#BC0000;stroke-width:20;}
	.st2{fill:none;stroke:#BC0000;stroke-width:10;stroke-linecap:round;stroke-linejoin:round;}
	.st3{fill-rule:evenodd;clip-rule:evenodd;fill:#BC0000;}
</style>
<g>
	<path class="st0" d="M47,78L51,221.1c0,1.6,1.4,2.9,3,2.9h102.2c1.6,0,2.9-1.3,3-2.9L164,78"/>
	<path class="st1" d="M70,70V50c0-1.7,1.3-3,3-3h65c1.7,0,3,1.3,3,3v20"/>
	<path class="st2" d="M73,106l5,89.5"/>
	<path class="st2" d="M137,106l-5,89.5"/>
	<path class="st2" d="M105,106v89.5"/>
	<path class="st3" d="M34.2,67h142.7c6.2,0,11.1,5,11.1,11.1s-5,11.1-11.1,11.1H34.2c-6.2,0-11.1-5-11.1-11.1S28,67,34.2,67z"/>
</g>
</svg>
