<svg xmlns="http://www.w3.org/2000/svg" width="211.093" height="271.093" viewBox="0 0 211.093 271.093">
  <g>
    <path fill="none" stroke="rgb(0,0,0)" stroke-linecap="round" stroke-linejoin="miter" stroke-width="20" d="M47.0463011 78.0463011l3.9200592 143.08216095c.04449987 1.62424518 1.37402007 2.91783904 2.99887472 2.91783904h102.18204707c1.61688827 0 2.94290187-1.28137953 2.9982423-2.89732046l4.9007767-143.10267954"/>
    <path fill="none" stroke="rgb(0,0,0)" stroke-linecap="butt" stroke-linejoin="miter" stroke-width="20" d="M70.0463011 70.0463011v-20c0-1.65685425 1.34314575-3 3-3h65c1.65685424 0 3 1.34314575 3 3v20"/>
    <path fill="none" stroke="rgb(0,0,0)" stroke-linecap="round" stroke-linejoin="round" stroke-width="10" d="M73.0463011 106.0463011l5 89.5"/>
    <path fill="none" stroke="rgb(0,0,0)" stroke-linecap="round" stroke-linejoin="round" stroke-width="10" d="M137.0463011 106.0463011l-5 89.5"/>
    <path fill="none" stroke="rgb(0,0,0)" stroke-linecap="round" stroke-linejoin="round" stroke-width="10" d="M105.0463011 106.0463011v89.5"/>
    <path fill="rgb(0,0,0)" fill-rule="evenodd" d="M34.19596096 67.0463011h142.70068027c6.1536648 0 11.14965986 4.99599506 11.14965986 11.14965986s-4.99599506 11.14965986-11.14965986 11.14965986H34.19596096c-6.1536648 0-11.14965987-4.99599506-11.14965987-11.14965986-9e-8-6.15366463 4.9959949-11.14965977 11.1496597-11.14965987z"/>
  </g>
</svg>
